<?xml version="1.0" encoding="utf-8"?>
<!-- Generator: Adobe Illustrator 25.2.1, SVG Export Plug-In . SVG Version: 6.00 Build 0)  -->
<svg version="1.1" id="Слой_1" xmlns="http://www.w3.org/2000/svg" xmlns:xlink="http://www.w3.org/1999/xlink" x="0px" y="0px"
	 viewBox="0 0 281.99 265.63" style="enable-background:new 0 0 281.99 265.63;" xml:space="preserve">
<style type="text/css">
	.st0{fill:#FAF9F8;}
</style>
<g>
	<path class="st0" d="M166.3,237.8c0,6.25-0.17,12.5,0.07,18.74c0.12,3.08-1.16,3.68-3.79,3.49c-2.26-0.16-4.5,0.55-4.44-3.3
		c0.2-13.64,0.01-27.28,0.06-40.92c0.01-1.42-0.95-3.75,1.81-3.76c2.13-0.01,4.62-1.04,5.87,2.16c2.24,5.72,4.81,11.31,7.27,16.94
		c0.76,1.74,1.6,3.45,3.21,4.93c0-6.22-0.03-12.44,0.01-18.66c0.02-2.62-1.12-5.59,3.77-5.6c4.55-0.01,4.12,2.44,4.12,5.35
		c-0.03,12.64,0.07,25.29-0.05,37.93c-0.02,1.64,1.49,4.38-1.71,4.83c-2.6,0.37-4.94,0.45-6.33-3.02
		c-2.63-6.57-5.97-12.85-9.02-19.25C166.88,237.7,166.59,237.75,166.3,237.8z"/>
	<path class="st0" d="M217.91,235.96c0-6.65,0.12-13.3-0.05-19.94c-0.07-2.89,0.62-4.25,3.82-4.11c5.31,0.23,10.64,0.32,15.94,0.06
		c3.81-0.19,2.75,2.36,2.91,4.28c0.18,2.22,0.38,4.46-3.09,4.05c-1.8-0.21-3.69,0.2-5.47-0.08c-4.63-0.72-5.83,1.15-5.74,5.66
		c0.08,3.96,0.78,5.92,5.13,5.22c1.62-0.26,3.34,0.15,4.97-0.08c3.68-0.52,4.26,1.22,4.39,4.5c0.14,3.59-1.34,4.3-4.35,4
		c-1.32-0.13-2.7,0.18-3.98-0.06c-5.2-0.97-6.06,1.36-6.2,6.18c-0.16,5.28,1.61,6.72,6.39,5.99c1.46-0.22,3.02,0.16,4.48-0.07
		c4.1-0.64,3.43,2.1,3.64,4.59c0.25,3.01-0.63,4.1-3.81,3.92c-5.14-0.28-10.31-0.22-15.45-0.02c-2.83,0.11-3.75-0.81-3.67-3.66
		c0.18-6.81,0.06-13.63,0.06-20.44C217.83,235.96,217.87,235.96,217.91,235.96z"/>
	<path class="st0" d="M140.09,260.01c-10.82,0-10.82,0-10.81-10.8c0.01-10.82,0.23-21.65-0.07-32.46c-0.12-4.13,1.29-5.09,5.08-4.85
		c4.81,0.3,9.66,0.27,14.48,0.01c3.85-0.21,3.19,2.24,3.34,4.54c0.16,2.56-0.31,4.21-3.45,3.86c-1.97-0.22-4.02,0.18-5.98-0.08
		c-4.22-0.57-5.19,1.15-5.3,5.24c-0.13,4.69,1.36,6.31,5.86,5.63c1.3-0.2,2.68,0.11,3.99-0.06c3.45-0.44,5.03,0.43,5.07,4.46
		c0.04,4.13-2.03,4.24-4.95,4.01c-0.66-0.05-1.33-0.01-2-0.01c-7.94,0-9.43,1.99-7.82,10c0.36,1.77,1.26,2.1,2.73,2.09
		c2.5-0.01,5.01,0.2,7.49-0.04c3.4-0.34,4.65,0.72,4.56,4.34c-0.08,3.21-0.85,4.53-4.21,4.18
		C145.44,259.78,142.75,260.01,140.09,260.01z"/>
	<path class="st0" d="M3.55,235.8c0-3.83-0.16-7.66,0.03-11.48c0.38-7.68,6.21-13.13,13.63-12.95c7.36,0.18,13.31,6.49,13.31,14.06
		c0,1.79-0.02,3.68-2.48,3.15c-2.05-0.45-5.32,2.01-5.96-2.23c-0.15-0.98-0.19-2-0.47-2.94c-0.76-2.54-2.47-3.85-5.19-3.71
		c-2.59,0.14-4.25,1.75-4.31,4.05c-0.22,8.14-0.24,16.29-0.01,24.42c0.08,2.61,2.23,4.13,4.87,4.07c2.93-0.07,4.34-2.04,4.93-4.76
		c0.4-1.85-0.66-4.4,3.03-4.48c5.4-0.12,6.49,0.83,5.4,6.12c-1.49,7.21-7.91,12.35-14.6,11.7c-6.98-0.69-12.05-6.45-12.23-14.04
		c-0.09-3.66-0.02-7.32-0.02-10.98C3.51,235.8,3.53,235.8,3.55,235.8z"/>
	<path class="st0" d="M196.73,240.39c0-5.16-0.24-10.33,0.08-15.47c0.23-3.71-0.85-5.28-4.67-4.68c-3.1,0.49-4.78-0.2-4.72-4.1
		c0.06-3.78,1.54-4.35,4.75-4.23c6.31,0.22,12.65,0.37,18.95,0.04c3.81-0.2,3.36,2,3.43,4.33c0.07,2.27,0.24,4.6-3.16,3.97
		c-5.49-1.01-6.52,1.59-6.33,6.54c0.38,9.8-0.06,19.63,0.26,29.44c0.13,3.88-1.8,3.77-4.53,3.84c-2.78,0.08-4.33-0.29-4.14-3.71
		C196.95,251.05,196.74,245.72,196.73,240.39z"/>
	<path class="st0" d="M221.28,112.68c4.97-1.43,9.48-3.74,12.71-8.99c-3.53-0.59-6.61-1.04-9.66-1.65
		c-1.47-0.29-3.53,0.43-3.96-2.04c-0.4-2.33,1.08-3.19,2.84-3.99c4.82-2.18,8.4-5.57,10.6-10.93c-3.28,0-6.07,0.15-8.84-0.06
		c-1.76-0.13-4.13,1.39-5.17-1.41c-0.97-2.62,0.76-3.76,2.58-5.17c3.96-3.08,6.55-7.12,7.75-12.6c-3.81,0.83-7.02,1.62-10.28,2.2
		c-1.11,0.2-2.55,1.71-3.45-0.17c-0.65-1.35,0.77-2.02,1.48-2.86c3.37-3.98,5.99-8.24,5.67-13.94c-3.45,0.59-6.08,2.45-9.02,3.5
		c-1.33,0.47-2.74,2.26-4.37,0.19c-1.47-1.88-1.16-3.25,0.07-5.28c2.67-4.39,3.97-9.22,2.58-15.03c-3.04,2.12-5.55,4.01-8.2,5.65
		c-1.11,0.69-2.02,2.62-3.8,1.3c-1.73-1.29-1.68-2.9-1-4.88c1.7-4.93,2.16-9.92-0.24-15.04c-2.92,1.71-4.32,4.53-6.64,6.35
		c-1.21,0.95-1.58,3.62-4.13,2.32c-2.37-1.21-2.46-3.06-2.08-5.45c0.8-5.06-0.39-9.73-3.51-14.5c-2.13,3.42-3.94,6.36-5.78,9.29
		c-0.51,0.81-0.87,2.06-2.04,1.88c-1.6-0.24-1.19-1.7-1.29-2.81c-0.46-5.34-1.55-10.41-6.15-14.43c-1.13,2.81-1.98,5.33-3.16,7.68
		c-0.85,1.7-0.17,4.68-3.46,4.6c-3.18-0.08-3.31-2.48-3.94-4.77c-1.3-4.71-3.8-8.63-8.5-11.48c-0.59,3.45-0.92,6.41-1.67,9.26
		c-0.4,1.51,0.3,3.96-2.51,4.13c-2.35,0.14-2.9-1.53-3.77-3.23c-2.34-4.6-5.73-8.13-10.78-10.34c0,3.67,0.13,6.51-0.05,9.32
		c-0.1,1.61,1.29,3.78-1.3,4.72c-2.54,0.92-3.89-0.59-5.35-2.39c-3.17-3.9-6.97-6.88-12.72-7.48c0.96,3.8,1.86,7.13,2.62,10.48
		c0.23,1.03,0.92,2.39-0.56,3.06c-1.19,0.54-1.75-0.65-2.41-1.3c-4.03-3.99-8.91-5.82-14.87-6.42c1.55,3.68,2.87,6.73,4.12,9.8
		c0.52,1.26,2.1,2.57,0.32,3.93c-1.5,1.14-3.05,1.75-4.96,0.36c-2.72-1.98-5.84-3.15-9.26-3.39c-1.82-0.12-4.24-1-5.26,0.37
		c-1.34,1.78,1.29,3,2.06,4.53c0.59,1.17,1.61,2.13,2.27,3.27c0.83,1.43,2.93,2.5,1.21,4.71c-1.56,2-3.11,1.02-4.84,0.41
		c-4.94-1.76-9.85-1.74-15.42,0.29c2.74,2.57,4.99,4.52,7.03,6.67c1.12,1.18,3.44,1.86,2.24,4.35c-1.09,2.26-2.78,2.22-4.98,1.95
		c-5.14-0.64-10.1-0.03-14.87,3.53c3.23,1.95,6.08,3.61,8.87,5.38c1.03,0.65,2.87,0.96,2.31,2.72c-0.44,1.39-1.98,0.92-3.08,0.93
		c-5.47,0.08-10.09,2.06-14.45,6.06c3.43,1.36,6.4,2.41,9.24,3.73c1.33,0.62,3.65,0.42,3.39,2.89c-0.24,2.31-1.69,3.11-3.94,3.69
		c-5.03,1.29-9.38,3.86-12.6,8.85c3.59,0.63,6.7,1.09,9.77,1.74c1.45,0.31,3.52-0.42,3.88,2.12c0.35,2.41-1.3,3.09-2.98,3.91
		c-4.71,2.3-8.42,5.56-10.37,10.85c3.54,0,6.66-0.04,9.78,0.02c1.52,0.03,3.46-0.88,4.12,1.55c0.54,1.98,0.04,3.33-1.8,4.59
		c-4.47,3.07-7.25,7.37-8.5,13.2c3.86-0.86,7.24-1.62,10.63-2.36c1.05-0.23,2.31-1.3,3.08,0.14c0.71,1.32-0.67,2.05-1.4,2.89
		c-3.52,4.01-6.06,8.38-5.86,14.57c3.73-1.64,6.73-3.02,9.77-4.28c1.28-0.53,2.65-1.65,3.88,0.28c0.98,1.53,1.32,2.78,0.13,4.48
		c-3.09,4.41-3.95,9.42-3.32,15.82c3.19-2.18,5.69-4.02,8.32-5.64c1.24-0.77,2.19-2.95,4.2-1.37c1.78,1.39,1.36,3.05,0.73,4.94
		c-1.65,4.93-1.93,9.89,0.4,15.37c2.44-2.57,4.36-4.84,6.56-6.81c1.16-1.04,1.64-3.65,4.15-2.42c2.37,1.16,2.47,3.06,2.06,5.45
		c-0.85,5.07,0.41,9.73,3.52,14.49c2.12-3.39,3.91-6.34,5.79-9.23c0.57-0.87,0.75-2.52,2.38-1.93c1.14,0.41,0.84,1.64,0.91,2.6
		c0.39,5.37,1.55,10.41,6.12,14.74c1.28-3.17,2.26-5.94,3.51-8.58c0.69-1.45,0.2-4,2.98-3.84c2.6,0.15,3.5,1.75,4.01,4.18
		c1.05,5.01,3.76,9,8.59,12.14c0.66-3.74,1.11-6.99,1.87-10.16c0.3-1.23-0.15-3.24,2.17-3.33c1.98-0.08,2.92,0.89,3.64,2.68
		c1.6,3.97,4.52,6.95,8,9.35c0.77,0.53,1.88,1.16,2.64,0.97c1.2-0.3,0.69-1.67,0.68-2.6c-0.03-2.16-0.28-4.33-0.23-6.49
		c0.04-1.62-1.04-3.64,1.76-4.44c2.32-0.67,3.26,0.51,4.46,2.04c3.23,4.11,7.2,7.15,13.19,8.13c-0.88-3.48-1.75-6.47-2.37-9.5
		c-0.27-1.33-1.5-3.09,0.17-4.06c1.48-0.86,2.23,0.98,3.16,1.8c4,3.53,8.66,5.32,14.24,5.75c-1.36-3.21-2.72-6.05-3.76-9.01
		c-0.52-1.48-2.74-2.97-0.43-4.78c1.88-1.48,3.51-1.03,5.42,0.17c4.48,2.79,9.33,3.93,14.98,2.54c-2.09-2.9-4.01-5.4-5.73-8.04
		c-0.81-1.24-2.59-2.35-1.04-4.32c1.51-1.91,3.02-1.2,4.85-0.54c4.91,1.79,9.85,1.96,15.43-0.36c-2.53-2.37-4.7-4.16-6.56-6.22
		c-1.18-1.3-3.87-1.9-2.66-4.63c1.15-2.6,3.15-2.16,5.44-1.91c4.97,0.56,9.73-0.21,14.46-3.58c-3.46-2.12-6.42-3.91-9.35-5.74
		c-0.93-0.58-2.39-0.96-1.82-2.49c0.44-1.19,1.7-0.79,2.63-0.79c5.53-0.02,10.21-2.04,14.85-5.99c-3.39-1.42-6.28-2.56-9.1-3.85
		c-1.48-0.68-3.97-0.4-3.5-3.25C217.89,113.8,219.33,113.24,221.28,112.68z M139.82,161.62c-37.17,0.24-67.52-29.85-67.64-67.03
		c-0.12-37.18,30.02-67.39,67.25-67.42c37.25-0.03,67.44,30.1,67.4,67.28C206.8,131.45,176.94,161.38,139.82,161.62z"/>
	<path class="st0" d="M89.5,233.27c5.85-9.28,0.09-20.4-10.82-21.17c-3.64-0.26-7.33,0.08-10.98-0.16c-3.08-0.2-4.1,0.95-4.02,3.98
		c0.16,6.82,0.05,13.65,0.05,20.48c-0.02,0-0.05,0-0.07,0c0,6.16,0.04,12.32-0.02,18.48c-0.03,2.88-0.51,5.34,4.07,5.31
		c4.19-0.03,4.57-1.77,4.41-5.04c-0.18-3.65-0.01-7.32,0.03-10.99c0.05-4.73,1.47-5.8,6.01-4.46c3.12,0.92,4.56,3.14,4.57,6.34
		c0.01,3.83,0.09,7.66,0,11.49c-0.05,2.07,1.03,2.76,2.77,2.42c1.91-0.37,5.36,1.45,5.48-1.46c0.29-6.57,1.54-13.42-1.55-19.67
		C88.36,236.67,88.1,235.48,89.5,233.27z M76.01,231.16c-5.38,0.4-3.43-3.37-3.65-4.52c-0.43-4.35-0.52-6.94,3.92-6.52
		c3.85,0.37,7.16,1.24,7.08,5.73C83.27,230.43,79.81,230.88,76.01,231.16z"/>
	<path class="st0" d="M272.68,233.2c3.02-4.28,3.17-9.15,0.76-13.72c-2.59-4.91-6.97-7.44-12.61-7.53
		c-3.16-0.05-6.33,0.19-9.47-0.08c-3.22-0.28-4.43,0.82-4.35,4.09c0.16,6.82,0.05,13.64,0.05,20.46c-0.05,0-0.1,0-0.15,0
		c0,6.32,0.12,12.64-0.05,18.96c-0.08,3.04,0.09,4.77,4.07,4.81c4.16,0.04,4.61-1.71,4.41-5.04c-0.21-3.65-0.04-7.32-0.02-10.98
		c0.04-4.74,1.45-5.81,6-4.45c3.36,1,4.66,3.53,4.71,6.83c0.05,3.66,0.09,7.32,0,10.98c-0.05,2,0.86,2.83,2.68,2.45
		c1.89-0.4,5.36,1.45,5.44-1.47c0.17-6.54,1.75-13.39-1.58-19.6C271.41,236.73,271.16,235.35,272.68,233.2z M266.55,225.91
		c-0.29,4.32-3.29,4.91-6.93,5.24c-4.7,0.43-4.67-2.22-4.21-5.51c0.18-2.41-1.37-5.8,3.58-5.52
		C263.87,220.41,266.8,222.25,266.55,225.91z"/>
	<path class="st0" d="M58.85,255.99c-2.57-13.38-5.07-26.78-6.99-40.26c-0.76-5.36-4.27-3.3-6.95-3.78c-2.8-0.5-4.59,0.21-5.16,3.54
		c-2.28,13.43-4.84,26.81-7.12,40.24c-0.22,1.3-2.33,4.11,1.12,4.11c2.29,0,6.2,2.26,6.69-2.48c0.37-3.56,2.85-2.74,4.76-2.57
		c1.95,0.18,5.14-1.65,5.44,2.26c0.24,3.25,2.33,3.08,4.72,2.9C58.48,260.53,59.55,259.63,58.85,255.99z M45.59,247.22
		c-2.36-0.02-3.25-0.59-2.76-3.13c0.95-4.93,1.62-9.91,2.41-14.88c0.38,0.08,0.75,0.15,1.13,0.23c0.69,4.9,1.3,9.82,2.12,14.71
		C48.9,246.68,47.92,247.24,45.59,247.22z"/>
	<path class="st0" d="M110.77,211.99c-2.83-0.08-5.68,0.21-8.49-0.07c-3.76-0.37-5.33,0.64-5.09,4.81c0.38,6.47,0.1,12.98,0.1,19.47
		c-0.05,0-0.1,0-0.15,0c0,6.83,0.11,13.65-0.05,20.48c-0.06,2.62,0.75,3.37,3.39,3.42c3.5,0.06,5.79-0.33,5.12-4.72
		c-0.35-2.28,0.2-4.69-0.12-6.98c-0.63-4.6,0.72-6.26,5.76-6.25c8.02,0.01,13.49-7.21,13.29-16.24
		C124.35,217.53,119.12,212.22,110.77,211.99z M107.32,233.99c-4.48-0.75-1.04-5.6-1.68-8.58c-0.57-2.63-0.85-5.65,3.82-5.36
		c4.32,0.27,6.43,2.33,6.71,6.35C116.48,230.97,113.49,234.01,107.32,233.99z"/>
	<path class="st0" d="M177.82,53.53c-3.21,2.02-5.97,3.81-8.79,5.5c-2.51,1.5-3.66,3.56-2.19,6.24c1.58,2.9,4.07,3.07,6.82,1.54
		c2.85-1.59,5.33-3.86,8.63-4.79c0.62,8.48-4.65,14.03-12.89,13.21c-2.89-0.29-4.61,0.51-6.46,2.46
		c-3.89,4.11-8.04,7.97-11.95,12.05c-0.97,1.01-3.59,1.81-1.87,3.8c1.38,1.6,2.51,4.51,5.33,3.64c3.59-1.11,5.59,0.78,7.77,2.99
		c7.72,7.8,15.43,15.61,23.31,23.25c3.39,3.28,3.29,5.9-0.03,9.23c-8.69,8.74-8.61,8.85-17.42,0.04
		c-6.71-6.71-13.36-13.47-20.09-20.15c-1.89-1.87-3.33-3.73-2.17-6.56c1.47-3.57-2.45-3.69-3.75-5.38
		c-1.36-1.76-2.47,0.68-3.36,1.52c-4.36,4.09-8.6,8.31-12.84,12.53c-3.25,3.22-5.87,6.06-5.59,11.73
		c0.45,9.26-10.15,14.01-18.81,8.73c2.97-1.84,5.75-3.59,8.55-5.31c2.46-1.51,3.67-3.6,2.18-6.27c-1.59-2.85-4.09-3.12-6.82-1.48
		c-2.69,1.61-5.37,3.25-8.12,4.91c-1.86-7.09,4.49-14.87,11.3-13.42c3.62,0.77,5.66-0.49,7.8-2.6c5.43-5.38,10.74-10.89,16.24-16.2
		c1.74-1.68,1.69-2.63-0.03-4.29c-6.35-6.11-12.51-12.43-18.83-18.57c-1.03-1-1.89-3.21-4-1.66c-1.94,1.42,0.19,2.45,0.38,3.7
		c0.67,4.29-3.73,5.3-5.74,7.85c-1.7,2.15-2.74-0.48-3.83-1.38c-1.28-1.05-2.37-2.33-3.55-3.5c-6.35-6.35-6.31-6.3,0.43-12.09
		c1.39-1.2,2.39-1.69,3.68-0.14c1.01,1.23,1.99,1.58,3.25,0.24c1.09-1.15,0.79-2.01-0.28-2.85c-1.97-1.56-0.92-2.69,0.41-3.97
		c3-2.89,5.85-5.92,8.85-8.8c4.49-4.32,8.58-4.3,13.08-0.04c1.21,1.14,2.3,2.42,3.57,3.49c1.7,1.45,1.55,2.68-0.12,3.98
		c-0.52,0.4-0.92,0.96-1.39,1.43c-7.46,7.5-7.47,7.5,0.2,15.19c3.52,3.54,7.12,7,10.56,10.62c1.46,1.53,2.47,1.69,4.02,0.09
		c4.63-4.77,9.32-9.5,14.17-14.06c1.85-1.75,1.16-3.56,1.03-5.49c-0.31-4.92,1.66-8.85,5.77-11.41
		C168.51,50.36,172.95,50.62,177.82,53.53z"/>
</g>
</svg>
